<svg width="843" height="504" viewBox="0 0 843 504" fill="none" xmlns="http://www.w3.org/2000/svg">
<g filter="url(#filter0_d_125_20581)">
<path d="M57 64C57 61.7909 58.7909 60 61 60H774C776.209 60 778 61.7909 778 64V380C778 414.242 750.242 442 716 442H61C58.7908 442 57 440.209 57 438V64Z" fill="#4CCEF8" fill-opacity="0.1" shape-rendering="crispEdges"/>
</g>
<path fill-rule="evenodd" clip-rule="evenodd" d="M428 50H61C58.7909 50 57 51.7909 57 54V445C57 447.209 58.7908 449 61 449H155.903L150.097 440H66V59H431L428 50ZM603 59H769V369C769 408.212 737.212 440 698 440H322.097L327.903 449H698C742.183 449 778 413.183 778 369V54C778 51.7909 776.209 50 774 50H600L603 59Z" fill="#4CCEF8"/>
<g filter="url(#filter1_d_125_20581)">
<path d="M474.327 47H456L465.164 60H484L474.327 47Z" fill="#4CCEF8"/>
<path d="M514.5 47H502L510 60H523L514.5 47Z" fill="#4CCEF8"/>
<path d="M552.852 60L544 47H566.131L574 60H552.852Z" fill="#4CCEF8"/>
</g>
<g filter="url(#filter2_d_125_20581)">
<path d="M196.327 442H178L187.164 455H206L196.327 442Z" fill="#4CCEF8"/>
<path d="M236.5 442H224L232 455H245L236.5 442Z" fill="#4CCEF8"/>
<path d="M274.852 455L266 442H288.131L296 455H274.852Z" fill="#4CCEF8"/>
</g>
<path d="M773 318C773 366.5 778 445 696.5 441.5" stroke="#4CCEF8" stroke-width="18"/>
<g filter="url(#filter3_d_125_20581)">
<path d="M668 424H662.029L657 433H663.286L668 424Z" fill="#4CCEF8"/>
<path d="M679 424H673.029L668 433H674.286L679 424Z" fill="#4CCEF8"/>
<path d="M693 424H687.029L682 433H688.286L693 424Z" fill="#4CCEF8"/>
</g>
<defs>
<filter id="filter0_d_125_20581" x="0" y="0" width="843" height="504" filterUnits="userSpaceOnUse" color-interpolation-filters="sRGB">
<feFlood flood-opacity="0" result="BackgroundImageFix"/>
<feColorMatrix in="SourceAlpha" type="matrix" values="0 0 0 0 0 0 0 0 0 0 0 0 0 0 0 0 0 0 127 0" result="hardAlpha"/>
<feOffset dx="4" dy="1"/>
<feGaussianBlur stdDeviation="30.5"/>
<feComposite in2="hardAlpha" operator="out"/>
<feColorMatrix type="matrix" values="0 0 0 0 0.298039 0 0 0 0 0.807843 0 0 0 0 0.972549 0 0 0 0.3 0"/>
<feBlend mode="normal" in2="BackgroundImageFix" result="effect1_dropShadow_125_20581"/>
<feBlend mode="normal" in="SourceGraphic" in2="effect1_dropShadow_125_20581" result="shape"/>
</filter>
<filter id="filter1_d_125_20581" x="452" y="43" width="126" height="21" filterUnits="userSpaceOnUse" color-interpolation-filters="sRGB">
<feFlood flood-opacity="0" result="BackgroundImageFix"/>
<feColorMatrix in="SourceAlpha" type="matrix" values="0 0 0 0 0 0 0 0 0 0 0 0 0 0 0 0 0 0 127 0" result="hardAlpha"/>
<feOffset/>
<feGaussianBlur stdDeviation="2"/>
<feComposite in2="hardAlpha" operator="out"/>
<feColorMatrix type="matrix" values="0 0 0 0 0.298039 0 0 0 0 0.807843 0 0 0 0 0.972549 0 0 0 0.8 0"/>
<feBlend mode="normal" in2="BackgroundImageFix" result="effect1_dropShadow_125_20581"/>
<feBlend mode="normal" in="SourceGraphic" in2="effect1_dropShadow_125_20581" result="shape"/>
</filter>
<filter id="filter2_d_125_20581" x="174" y="438" width="126" height="21" filterUnits="userSpaceOnUse" color-interpolation-filters="sRGB">
<feFlood flood-opacity="0" result="BackgroundImageFix"/>
<feColorMatrix in="SourceAlpha" type="matrix" values="0 0 0 0 0 0 0 0 0 0 0 0 0 0 0 0 0 0 127 0" result="hardAlpha"/>
<feOffset/>
<feGaussianBlur stdDeviation="2"/>
<feComposite in2="hardAlpha" operator="out"/>
<feColorMatrix type="matrix" values="0 0 0 0 0.298039 0 0 0 0 0.807843 0 0 0 0 0.972549 0 0 0 0.8 0"/>
<feBlend mode="normal" in2="BackgroundImageFix" result="effect1_dropShadow_125_20581"/>
<feBlend mode="normal" in="SourceGraphic" in2="effect1_dropShadow_125_20581" result="shape"/>
</filter>
<filter id="filter3_d_125_20581" x="653" y="420" width="44" height="17" filterUnits="userSpaceOnUse" color-interpolation-filters="sRGB">
<feFlood flood-opacity="0" result="BackgroundImageFix"/>
<feColorMatrix in="SourceAlpha" type="matrix" values="0 0 0 0 0 0 0 0 0 0 0 0 0 0 0 0 0 0 127 0" result="hardAlpha"/>
<feOffset/>
<feGaussianBlur stdDeviation="2"/>
<feComposite in2="hardAlpha" operator="out"/>
<feColorMatrix type="matrix" values="0 0 0 0 0.298039 0 0 0 0 0.807843 0 0 0 0 0.972549 0 0 0 0.8 0"/>
<feBlend mode="normal" in2="BackgroundImageFix" result="effect1_dropShadow_125_20581"/>
<feBlend mode="normal" in="SourceGraphic" in2="effect1_dropShadow_125_20581" result="shape"/>
</filter>
</defs>
</svg>
