<svg width="36" height="42" viewBox="0 0 36 42" fill="none" xmlns="http://www.w3.org/2000/svg">
<path d="M30.1076 7.06643L27.99 5.82917L24.4853 3.78669V7.90911L27.9874 9.95159L30.105 11.1875L32.4596 12.5639V29.4415L18 37.8789L13.6324 35.3295V39.4586L18 42L36 31.4973V10.4973L30.1076 7.06643ZM5.88706 30.8138L3.53515 29.4415V12.5639L18 4.12242L22.3676 6.67318V2.55076L18 0L0 10.5027V31.5027L5.88574 34.9389L8.00338 36.1748L11.5054 38.2147V34.0922L8.00603 32.0497L5.88706 30.8138Z" fill="white"/>
<path d="M10.3831 15.9707L8.00873 17.3564V17.2347L10.3831 15.9707Z" fill="white"/>
<path d="M4.9494 13.3891V17.4888L5.88646 16.943L12.9197 12.8407V33.2682L13.6265 33.6815L16.4548 35.3321V6.67578L4.9494 13.3891Z" fill="white"/>
<path d="M30.1071 25.0662L27.9894 26.3021L24.4543 28.366L23.0765 29.1685V24.709L23.0659 24.7157V8.73432L22.3697 8.33304L19.5387 6.67578V35.3321L31.0534 28.6161V24.5164L30.1071 25.0662Z" fill="white"/>
<path d="M11.5081 15.3701V26.6941L8.00873 24.6543V17.2347L10.3831 15.9707L11.5081 15.3701Z" fill="white"/>
<path d="M11.5062 15.3716V38.2148L8.00677 36.175V17.2362L10.3825 15.9708L11.5062 15.3716Z" fill="white"/>
<path d="M27.9875 5.83044V24.6515L24.4881 26.6953V3.78662L27.9875 5.83044Z" fill="white"/>
</svg>
