<svg width="631" height="73" viewBox="0 0 631 73" fill="none" xmlns="http://www.w3.org/2000/svg">
<path fill-rule="evenodd" clip-rule="evenodd" d="M0 44.5132L5.72666 73H598.056L630.87 0H22.7877L0 44.5132Z" fill="#4CCEF8"/>
<path fill-rule="evenodd" clip-rule="evenodd" d="M64.3132 20.04L50.2501 15L48 21.16L49.125 27.32L48 28.44L50.2501 30.68L48.5625 32.92L51.3751 35.16L48 45.24L51.3751 55.88L60.938 52.52L67.1258 57H70.4991H70.5009H73.8742L80.062 52.52L89.6249 55.88L93 45.24L89.6249 35.16L92.4375 32.92L90.7499 30.68L93 28.44L91.875 27.32L93 21.16L90.7499 15L76.6868 20.04H70.5009H70.4991H64.3132ZM51.8297 16.6805L67.1232 27.0857L62.377 34.0224L53.9391 34.6005L51.8297 32.8663L53.9391 30.5541L51.8297 28.2418L52.8844 26.5076L50.2476 20.727L51.8297 16.6805ZM73.8768 27.0857L89.1703 16.6805L90.7524 20.727L88.1156 26.5076L89.1703 28.2418L87.0609 30.5541L89.1703 32.8663L87.0609 34.6005L78.623 34.0224L73.8768 27.0857ZM61.4954 41.3201L65.433 39.6401L67.1206 43.0001L61.4954 41.3201ZM75.5577 39.6401L79.4954 41.3201L73.8701 43.0001L75.5577 39.6401ZM67.1169 52.5203V50.2803L68.242 49.1603H72.7422L73.8672 50.2803V52.5203H67.1169Z" fill="black"/>
<path d="M543.256 24C544.838 24 546.319 24.5209 547.621 25.5024C548.981 26.5241 549.722 28.1267 549.882 30.0503C549.89 30.0761 549.887 30.1039 549.875 30.1279C549.863 30.1519 549.842 30.1705 549.817 30.1798L549.762 30.1901H546.679C546.634 30.1901 546.589 30.1675 546.569 30.131L546.559 30.0899C546.198 27.3056 542.816 26.5441 540.775 27.9067C539.353 28.8682 539.073 31.0719 540.435 32.1933C540.968 32.6345 541.582 32.9862 542.205 33.326L543.853 34.2259L545.3 34.9709C546.023 35.3437 546.739 35.7293 547.42 36.1802C549.762 37.7428 550.542 40.1069 550.12 42.7308C549.642 45.4158 547.28 48 542.717 48C540.974 48 539.293 47.5192 537.753 46.3572C536.111 45.135 535.511 43.793 535.511 41.3687C535.511 41.324 535.545 41.2787 535.587 41.2592L535.631 41.2489H538.973C539.033 41.2489 539.093 41.3086 539.093 41.3687C539.093 41.5893 539.133 42.0901 539.213 42.3508C539.674 43.793 540.994 44.7144 542.697 44.8147C544.257 44.915 545.818 44.0537 546.418 42.811C547.079 41.4489 546.599 39.7259 545.078 38.785L544.883 38.6657L544.161 38.2513L543.29 37.7731L539.085 35.5488L538.83 35.4059L538.752 35.3591C534.369 32.634 535.11 24 543.256 24H543.256ZM563.232 24.4607C563.277 24.4607 563.322 24.4946 563.342 24.5368L563.352 24.581V33.596C563.352 33.6762 563.429 33.7307 563.501 33.7081L563.552 33.6762L572.379 24.5008C572.392 24.4863 572.407 24.4747 572.425 24.4669L572.459 24.4607H576.722C576.802 24.4607 576.856 24.5378 576.834 24.6098L576.802 24.6612L566.394 35.4794C566.38 35.494 566.371 35.5116 566.366 35.5307C566.362 35.5498 566.362 35.5698 566.367 35.5889L566.394 35.6393L577.962 47.5989C578.026 47.6473 578.001 47.747 577.947 47.7948L577.902 47.82H573.639L573.599 47.8072L573.559 47.7794L563.552 37.4425C563.504 37.3782 563.405 37.4039 563.367 37.4682L563.352 37.5227V47.6997C563.352 47.7445 563.318 47.7897 563.276 47.8092L563.232 47.8195H559.888C559.844 47.8195 559.799 47.7861 559.779 47.7439L559.769 47.6997V24.581C559.769 24.5358 559.802 24.491 559.844 24.471L559.888 24.4607H563.232ZM393.224 24.4406C393.264 24.4406 393.295 24.4499 393.317 24.4736L393.344 24.5209L396.086 33.5759C396.092 33.5963 396.103 33.6149 396.118 33.6298C396.133 33.6447 396.152 33.6556 396.172 33.6613C396.192 33.6671 396.214 33.6676 396.234 33.6627C396.255 33.6578 396.274 33.6478 396.29 33.6335L396.326 33.5759L399.068 24.5214C399.082 24.4916 399.106 24.4674 399.135 24.4525L399.188 24.4406H404.252C404.297 24.4406 404.342 24.4746 404.362 24.5167L404.372 24.561V47.6802C404.372 47.7249 404.338 47.7702 404.296 47.7897L404.252 47.8H400.909C400.865 47.8 400.82 47.7666 400.8 47.7244L400.79 47.6802V30.1109C400.79 29.9937 400.651 29.9464 400.581 30.0153L400.549 30.0708L397.787 39.1861L397.587 39.8267C397.573 39.8562 397.55 39.8803 397.521 39.8951L397.467 39.9069H394.905C394.865 39.9069 394.834 39.8982 394.812 39.8745L394.785 39.8267L394.585 39.1861L391.823 30.0708C391.79 29.9706 391.645 29.968 391.598 30.0508L391.583 30.1109V47.6802C391.583 47.7249 391.549 47.7702 391.507 47.7897L391.463 47.8H388.12C388.075 47.8 388.03 47.7666 388.01 47.7244L388 47.6802V24.561C388 24.5157 388.034 24.471 388.076 24.4509L388.12 24.4406H393.224ZM490.277 24.4406C490.317 24.4406 490.348 24.4499 490.37 24.4736L490.397 24.5209L493.14 33.5759C493.146 33.5962 493.157 33.6147 493.172 33.6295C493.187 33.6444 493.205 33.6552 493.225 33.661C493.246 33.6667 493.267 33.6672 493.288 33.6624C493.308 33.6576 493.327 33.6477 493.343 33.6335L493.38 33.5759L496.121 24.5214C496.135 24.4916 496.158 24.4674 496.187 24.4525L496.24 24.4406H501.325C501.37 24.4406 501.415 24.4746 501.434 24.5167L501.445 24.561V47.6802C501.445 47.7249 501.411 47.7702 501.369 47.7897L501.325 47.8H497.983C497.938 47.8 497.893 47.7666 497.873 47.7244L497.863 47.6802V30.1109C497.863 29.9937 497.724 29.9464 497.654 30.0153L497.623 30.0708L494.86 39.1861L494.66 39.8267C494.646 39.8563 494.622 39.8804 494.593 39.8951L494.54 39.9069H491.978C491.938 39.9069 491.906 39.8982 491.884 39.8745L491.858 39.8267L491.657 39.1861L488.897 30.0708C488.863 29.9706 488.718 29.968 488.671 30.0508L488.656 30.1109V47.6802C488.656 47.7249 488.622 47.7702 488.58 47.7897L488.536 47.8H485.193C485.147 47.8 485.102 47.7666 485.083 47.7244L485.073 47.6802V24.561C485.073 24.5157 485.106 24.471 485.148 24.4509L485.193 24.4406H490.277ZM453.129 24.4406C453.153 24.4393 453.177 24.446 453.198 24.4597C453.218 24.4735 453.233 24.4935 453.241 24.5167L453.249 24.561V27.4455C453.249 27.4907 453.215 27.536 453.173 27.5555L453.129 27.5658H447.024V47.6802C447.024 47.7249 446.99 47.7702 446.948 47.7897L446.904 47.8H443.562C443.516 47.8 443.471 47.7666 443.452 47.7244L443.442 47.6802V27.5658H437.336C437.291 27.5658 437.246 27.5318 437.226 27.4897L437.216 27.4455V24.561C437.216 24.5152 437.25 24.4705 437.292 24.4504L437.336 24.4401H453.128L453.129 24.4406ZM469.601 24.3604C469.641 24.3604 469.673 24.3692 469.695 24.3928L469.721 24.4406L476.006 47.639C476.013 47.6672 476.01 47.6969 475.998 47.7234C475.987 47.75 475.966 47.7718 475.941 47.7856L475.886 47.7995H472.844C472.811 47.7959 472.779 47.7815 472.755 47.7583L472.724 47.7193L470.903 40.9682C470.889 40.9386 470.865 40.9146 470.836 40.8998L470.783 40.888H464.057C464.016 40.888 463.985 40.8967 463.963 40.9204L463.936 40.9682L462.115 47.7193C462.101 47.7488 462.078 47.7728 462.049 47.7876L461.995 47.7995H458.953C458.924 47.799 458.897 47.7887 458.875 47.7703C458.852 47.7519 458.837 47.7264 458.832 47.6982L458.833 47.639L465.117 24.4406C465.132 24.4111 465.155 24.3871 465.184 24.3723L465.237 24.3604H469.6H469.601ZM521.48 24.3604C521.52 24.3604 521.551 24.3692 521.573 24.3928L521.6 24.4406L527.884 47.639C527.891 47.6673 527.888 47.697 527.877 47.7235C527.865 47.7501 527.845 47.7719 527.819 47.7856L527.764 47.7995H524.723C524.705 47.7996 524.688 47.796 524.671 47.7889C524.655 47.7818 524.641 47.7714 524.629 47.7583L524.602 47.7193L522.781 40.9682C522.767 40.9386 522.744 40.9146 522.715 40.8998L522.661 40.888H515.936C515.896 40.888 515.865 40.8967 515.843 40.9204L515.816 40.9682L513.995 47.7193C513.981 47.7488 513.957 47.7728 513.928 47.7876L513.875 47.7995H510.832C510.803 47.799 510.776 47.7887 510.754 47.7703C510.732 47.7519 510.716 47.7264 510.711 47.6982L510.712 47.639L516.996 24.4406C517.01 24.4111 517.034 24.3871 517.063 24.3723L517.116 24.3604H521.479H521.48ZM428.191 24.4607C428.235 24.4607 428.28 24.4946 428.3 24.5368L428.31 24.581V27.4655C428.31 27.5108 428.277 27.556 428.234 27.5756L428.19 27.5858H418.062C418.017 27.5858 417.972 27.6198 417.953 27.6619L417.943 27.7062V33.8366C417.943 33.8814 417.976 33.9266 418.018 33.9461L418.062 33.9564H426.969C427.014 33.9564 427.059 33.9904 427.079 34.0325L427.09 34.0767V36.9612C427.09 37.0065 427.056 37.0517 427.013 37.0713L426.969 37.0816H418.062C418.017 37.0816 417.972 37.1155 417.953 37.1577L417.943 37.2019V44.3741C417.943 44.4275 417.96 44.463 417.99 44.4872L418.042 44.5144H428.61C428.655 44.5144 428.7 44.5478 428.72 44.5905L428.731 44.6342V47.6797C428.731 47.7244 428.697 47.7696 428.655 47.7892L428.61 47.7995H414.48C414.435 47.7995 414.39 47.7661 414.37 47.7234L414.36 47.6797V24.581C414.36 24.5358 414.394 24.491 414.436 24.471L414.48 24.4607H428.19H428.191ZM467.54 28.5473C467.534 28.5269 467.523 28.5084 467.508 28.4935C467.493 28.4785 467.474 28.4677 467.454 28.4619C467.434 28.4562 467.412 28.4557 467.391 28.4606C467.371 28.4654 467.352 28.4755 467.336 28.4897L467.3 28.5473L464.858 37.5824C464.842 37.6425 464.873 37.7027 464.922 37.7289L464.978 37.7428H469.862C469.89 37.7422 469.918 37.7318 469.94 37.7134C469.962 37.695 469.977 37.6696 469.982 37.6415L469.981 37.5824L467.54 28.5473ZM519.419 28.5473C519.413 28.5269 519.402 28.5084 519.387 28.4935C519.371 28.4785 519.353 28.4677 519.332 28.4619C519.312 28.4562 519.291 28.4557 519.27 28.4606C519.249 28.4654 519.23 28.4755 519.215 28.4897L519.178 28.5473L516.736 37.5824C516.721 37.6425 516.752 37.7027 516.801 37.7289L516.856 37.7428H521.74C521.769 37.7423 521.797 37.732 521.819 37.7136C521.841 37.6952 521.856 37.6697 521.862 37.6415L521.861 37.5824L519.419 28.5473Z" fill="black"/>
</svg>
