<svg width="24" height="24" viewBox="0 0 24 24" fill="none" xmlns="http://www.w3.org/2000/svg">
<path d="M4.07102 13.1363L4.134 13.0385L7.93201 7.17035C7.98752 7.08444 8.11801 7.09332 8.16 7.18665C8.79451 8.59109 9.34201 10.3378 9.08552 11.4252C8.97602 11.8726 8.67602 12.4785 8.3385 13.0385C8.29502 13.12 8.24702 13.2 8.196 13.277C8.172 13.3126 8.1315 13.3333 8.08799 13.3333H4.182C4.077 13.3333 4.01551 13.2207 4.07102 13.1363Z" fill="white"/>
<path d="M21 14.2267V15.1556C21 15.2089 20.967 15.2563 20.919 15.277C20.625 15.4015 19.6185 15.8578 19.2 16.4326C18.132 17.9007 17.316 20 15.492 20H7.88249C5.18551 20 3 17.8341 3 15.1615V15.0756C3 15.0044 3.05849 14.9467 3.13049 14.9467H7.37251C7.45649 14.9467 7.51799 15.0237 7.51051 15.1052C7.48049 15.3778 7.53151 15.6563 7.662 15.9096C7.91399 16.4148 8.436 16.7304 8.99999 16.7304H11.1V15.1111H9.02399C8.9175 15.1111 8.85452 14.9896 8.91601 14.9037C8.9385 14.8696 8.96402 14.8341 8.991 14.7941C9.18751 14.5185 9.468 14.0904 9.74701 13.603C9.93751 13.2741 10.122 12.923 10.2705 12.5704C10.3005 12.5067 10.3245 12.4415 10.3485 12.3778C10.389 12.2652 10.431 12.16 10.461 12.0548C10.491 11.9659 10.515 11.8726 10.539 11.7852C10.6095 11.4859 10.6395 11.1689 10.6395 10.84C10.6395 10.7111 10.6335 10.5763 10.6215 10.4474C10.6155 10.3067 10.5975 10.1659 10.5795 10.0252C10.5675 9.90073 10.545 9.77776 10.521 9.64888C10.491 9.46074 10.449 9.27409 10.401 9.08591L10.3845 9.01482C10.3485 8.88591 10.3185 8.76297 10.2765 8.63409C10.158 8.22962 10.0215 7.83556 9.8775 7.46668C9.825 7.32 9.76499 7.17926 9.70499 7.03853C9.61651 6.82668 9.52649 6.63409 9.444 6.45185C9.40201 6.36888 9.36601 6.29332 9.33001 6.21629C9.28951 6.12888 9.24752 6.04147 9.2055 5.95853C9.17551 5.89482 9.141 5.83556 9.11699 5.77629L8.8605 5.30815C8.8245 5.24444 8.88451 5.16888 8.95499 5.18815L10.56 5.61776H10.5645C10.5675 5.61776 10.5705 5.61926 10.5705 5.61926L10.782 5.67703L11.0145 5.74224L11.1 5.76591V4.82371C11.1 4.36888 11.469 4 11.925 4C12.153 4 12.36 4.09185 12.5085 4.24147C12.657 4.39112 12.75 4.59556 12.75 4.82371V6.22223L12.921 6.26962C12.9345 6.27409 12.948 6.28 12.96 6.28888C13.002 6.32 13.062 6.36591 13.1385 6.42223C13.1985 6.46962 13.263 6.52741 13.341 6.58668C13.4955 6.70962 13.68 6.86815 13.8825 7.05038C13.9365 7.09629 13.989 7.14371 14.037 7.19112C14.298 7.43112 14.5905 7.71259 14.8695 8.02371C14.9475 8.11112 15.024 8.2 15.102 8.29332C15.18 8.38815 15.2625 8.48147 15.3345 8.57482C15.429 8.69926 15.531 8.82815 15.6195 8.96297C15.6615 9.02668 15.7095 9.09185 15.75 9.15556C15.864 9.32591 15.9645 9.50223 16.0605 9.67853C16.101 9.76 16.143 9.84888 16.179 9.93629C16.2855 10.1719 16.3695 10.4119 16.4235 10.6519C16.44 10.7037 16.452 10.76 16.458 10.8104V10.8222C16.476 10.8933 16.482 10.9689 16.488 11.0459C16.512 11.2919 16.5 11.5378 16.446 11.7852C16.4235 11.8904 16.3935 11.9896 16.3575 12.0948C16.3215 12.1956 16.2855 12.3007 16.239 12.4C16.149 12.6059 16.0425 12.8119 15.9165 13.0044C15.876 13.0756 15.828 13.1511 15.78 13.2222C15.7275 13.2978 15.6735 13.3689 15.6255 13.4385C15.5595 13.5274 15.489 13.6207 15.417 13.7037C15.3525 13.7911 15.2865 13.8785 15.2145 13.9556C15.114 14.0726 15.018 14.1837 14.9175 14.2904C14.8575 14.36 14.793 14.4311 14.727 14.4948C14.6625 14.5659 14.5965 14.6296 14.5365 14.6889C14.436 14.7881 14.352 14.8652 14.2815 14.9289L14.1165 15.0785C14.0925 15.0993 14.061 15.1111 14.028 15.1111H12.75V16.7304H14.358C14.718 16.7304 15.06 16.6044 15.336 16.3733C15.4305 16.2919 15.843 15.9393 16.3305 15.4074C16.347 15.3896 16.368 15.3763 16.392 15.3704L20.8335 14.1022C20.916 14.0785 21 14.1407 21 14.2267Z" fill="white"/>
</svg>
