<svg width="43" height="28" viewBox="0 0 43 28" fill="none" xmlns="http://www.w3.org/2000/svg">
<mask id="path-1-inside-1_130_20679" fill="white">
<path fill-rule="evenodd" clip-rule="evenodd" d="M23.6471 0H0V28H42.3676V15.6471L23.6471 0Z"/>
</mask>
<path fill-rule="evenodd" clip-rule="evenodd" d="M23.6471 0H0V28H42.3676V15.6471L23.6471 0Z" fill="#4CCEF8" fill-opacity="0.14"/>
<path d="M0 0V-1H-1V0H0ZM23.6471 0L24.2884 -0.767282L24.0099 -1H23.6471V0ZM0 28H-1V29H0V28ZM42.3676 28V29H43.3676V28H42.3676ZM42.3676 15.6471H43.3676V15.1796L43.009 14.8798L42.3676 15.6471ZM0 1H23.6471V-1H0V1ZM1 28V0H-1V28H1ZM42.3676 27H0V29H42.3676V27ZM43.3676 28V15.6471H41.3676V28H43.3676ZM23.0058 0.767282L41.7263 16.4143L43.009 14.8798L24.2884 -0.767282L23.0058 0.767282Z" fill="#4CCEF8" mask="url(#path-1-inside-1_130_20679)"/>
<path d="M24.3327 10.8C23.0951 7.97455 20.2688 6 16.9801 6C12.8216 6 9.40237 9.15734 9 13.2M20.9901 10.8H24.5188C24.7846 10.8 25 10.5851 25 10.32V6.8M9.66736 17.2C10.9049 20.0254 13.7312 22 17.0198 22C21.1783 22 24.5976 18.8426 25 14.8M13.0099 17.2H9.48119C9.21544 17.2 9 17.4149 9 17.68V21.2" stroke="white" stroke-width="1.5" stroke-linecap="round" stroke-linejoin="round"/>
</svg>
