<svg width="1328" height="92" viewBox="0 0 1328 92" fill="none" xmlns="http://www.w3.org/2000/svg">
<g filter="url(#filter0_d_125_20473)">
<path d="M13.9727 23.5086V17.1667L10 22.1924V28.0556L13.9727 23.5086Z" fill="#4CCEF8"/>
<path d="M13.9727 34.3975V28.0557L10 33.0813V38.9446L13.9727 34.3975Z" fill="#4CCEF8"/>
<path d="M14.4693 49.0556V39.7223L10 42.8334V49.8334L23.9045 64.2223L40.2919 79.0001H55.1895L59 75.0001H43L14.4693 49.0556Z" fill="#4CCEF8"/>
</g>
<g filter="url(#filter1_d_125_20473)">
<path d="M1314.03 60.9915V67.3334L1318 62.3077V56.4445L1314.03 60.9915Z" fill="#4FCFF1"/>
<path d="M1314.03 50.1026V56.4445L1318 51.4188V45.5556L1314.03 50.1026Z" fill="#4FCFF1"/>
<path d="M1313.53 35.4443V44.7776L1318 41.6665V33.4998L1296.65 20.2776L1277.78 8.99981H1262.88L1257.91 13.2776H1276.78L1313.53 35.4443Z" fill="#4CCEF8"/>
</g>
<g filter="url(#filter2_d_125_20473)">
<path d="M13.9999 48.3674V13L1276.96 13.0991L1314 34.9165V75H43.1869L13.9999 48.3674Z" fill-opacity="0.6" shape-rendering="crispEdges"/>
<path d="M13.9999 48.3674V13L1276.96 13.0991L1314 34.9165V75H43.1869L13.9999 48.3674Z" stroke="#49ACC7" stroke-opacity="0.6" shape-rendering="crispEdges"/>
</g>
<defs>
<filter id="filter0_d_125_20473" x="1" y="12.1667" width="67" height="79.8334" filterUnits="userSpaceOnUse" color-interpolation-filters="sRGB">
<feFlood flood-opacity="0" result="BackgroundImageFix"/>
<feColorMatrix in="SourceAlpha" type="matrix" values="0 0 0 0 0 0 0 0 0 0 0 0 0 0 0 0 0 0 127 0" result="hardAlpha"/>
<feOffset dy="4"/>
<feGaussianBlur stdDeviation="4.5"/>
<feComposite in2="hardAlpha" operator="out"/>
<feColorMatrix type="matrix" values="0 0 0 0 0.298039 0 0 0 0 0.807843 0 0 0 0 0.972549 0 0 0 0.24 0"/>
<feBlend mode="normal" in2="BackgroundImageFix" result="effect1_dropShadow_125_20473"/>
<feBlend mode="normal" in="SourceGraphic" in2="effect1_dropShadow_125_20473" result="shape"/>
</filter>
<filter id="filter1_d_125_20473" x="1249.91" y="-0.000244141" width="78.0872" height="76.3336" filterUnits="userSpaceOnUse" color-interpolation-filters="sRGB">
<feFlood flood-opacity="0" result="BackgroundImageFix"/>
<feColorMatrix in="SourceAlpha" type="matrix" values="0 0 0 0 0 0 0 0 0 0 0 0 0 0 0 0 0 0 127 0" result="hardAlpha"/>
<feOffset dx="1"/>
<feGaussianBlur stdDeviation="4.5"/>
<feComposite in2="hardAlpha" operator="out"/>
<feColorMatrix type="matrix" values="0 0 0 0 0.298039 0 0 0 0 0.807843 0 0 0 0 0.972549 0 0 0 0.24 0"/>
<feBlend mode="normal" in2="BackgroundImageFix" result="effect1_dropShadow_125_20473"/>
<feBlend mode="normal" in="SourceGraphic" in2="effect1_dropShadow_125_20473" result="shape"/>
</filter>
<filter id="filter2_d_125_20473" x="0.499756" y="2.5" width="1325" height="87" filterUnits="userSpaceOnUse" color-interpolation-filters="sRGB">
<feFlood flood-opacity="0" result="BackgroundImageFix"/>
<feColorMatrix in="SourceAlpha" type="matrix" values="0 0 0 0 0 0 0 0 0 0 0 0 0 0 0 0 0 0 127 0" result="hardAlpha"/>
<feOffset dx="-1" dy="2"/>
<feGaussianBlur stdDeviation="6"/>
<feComposite in2="hardAlpha" operator="out"/>
<feColorMatrix type="matrix" values="0 0 0 0 0.298039 0 0 0 0 0.807843 0 0 0 0 0.972549 0 0 0 0.2 0"/>
<feBlend mode="normal" in2="BackgroundImageFix" result="effect1_dropShadow_125_20473"/>
<feBlend mode="normal" in="SourceGraphic" in2="effect1_dropShadow_125_20473" result="shape"/>
</filter>
</defs>
</svg>
