<svg width="28" height="19" viewBox="0 0 28 19" fill="none" xmlns="http://www.w3.org/2000/svg">
<rect width="28" height="19" fill="white"/>
<path d="M0 17.1639H28V19H0V17.1639Z" fill="#D72E20"/>
<path d="M0 13.7311H28V15.5672H0V13.7311Z" fill="#D72E20"/>
<path d="M0 10.2983H28V12.1344H0V10.2983Z" fill="#D72E20"/>
<path d="M0 6.86556H28V8.70166H0V6.86556Z" fill="#D72E20"/>
<path d="M0 3.43278H28V5.26888H0V3.43278Z" fill="#D72E20"/>
<path d="M0 0H28V1.8361H0V0Z" fill="#D72E20"/>
<path d="M3.3471 0H12.9234V12.1344H3.3471V0Z" fill="#293CA9"/>
<path d="M11.9105 0.536614L12.0441 1.06277H12.4766L12.1267 1.38795L12.2604 1.91411L11.9105 1.58892L11.5607 1.91411L11.6943 1.38795L11.3445 1.06277H11.7769L11.9105 0.536614Z" fill="white"/>
<path d="M12.0441 3.47702L11.9105 2.95087L11.7769 3.47702H11.3445L11.6943 3.80221L11.5607 4.32836L11.9105 4.00318L12.2604 4.32836L12.1267 3.80221L12.4766 3.47702H12.0441Z" fill="white"/>
<path d="M11.9105 5.36512L12.0441 5.89128H12.4766L12.1267 6.21646L12.2604 6.74262L11.9105 6.41743L11.5607 6.74262L11.6943 6.21646L11.3445 5.89128H11.7769L11.9105 5.36512Z" fill="white"/>
<path d="M12.0441 8.30553L11.9105 7.77938L11.7769 8.30553H11.3445L11.6943 8.63071L11.5607 9.15687L11.9105 8.83169L12.2604 9.15687L12.1267 8.63071L12.4766 8.30553H12.0441Z" fill="white"/>
<path d="M12.0441 10.7198L11.9105 10.1936L11.7769 10.7198H11.3445L11.6943 11.045L11.5607 11.5711L11.9105 11.2459L12.2604 11.5711L12.1267 11.045L12.4766 10.7198H12.0441Z" fill="white"/>
<path d="M10.9559 9.54948L10.8223 9.02333L10.6887 9.54948H10.2562L10.6061 9.87466L10.4724 10.4008L10.8223 10.0756L11.1721 10.4008L11.0385 9.87466L11.3883 9.54948H10.9559Z" fill="white"/>
<path d="M10.8223 6.60907L10.9559 7.13523H11.3883L11.0385 7.46041L11.1721 7.98656L10.8223 7.66138L10.4724 7.98656L10.6061 7.46041L10.2562 7.13523H10.6887L10.8223 6.60907Z" fill="white"/>
<path d="M10.9559 4.72097L10.8223 4.19482L10.6887 4.72097H10.2562L10.6061 5.04615L10.4724 5.57231L10.8223 5.24713L11.1721 5.57231L11.0385 5.04615L11.3883 4.72097H10.9559Z" fill="white"/>
<path d="M10.8223 1.78056L10.9559 2.30672H11.3883L11.0385 2.6319L11.1721 3.15806L10.8223 2.83287L10.4724 3.15806L10.6061 2.6319L10.2562 2.30672H10.6887L10.8223 1.78056Z" fill="white"/>
<path d="M9.85556 10.7198L9.72193 10.1936L9.5883 10.7198H9.15587L9.50571 11.045L9.37208 11.5711L9.72193 11.2459L10.0718 11.5711L9.93814 11.045L10.288 10.7198H9.85556Z" fill="white"/>
<path d="M9.72193 7.77938L9.85556 8.30553H10.288L9.93814 8.63071L10.0718 9.15687L9.72193 8.83169L9.37208 9.15687L9.50571 8.63071L9.15587 8.30553H9.5883L9.72193 7.77938Z" fill="white"/>
<path d="M9.85556 5.89128L9.72193 5.36512L9.5883 5.89128H9.15587L9.50571 6.21646L9.37208 6.74262L9.72193 6.41743L10.0718 6.74262L9.93814 6.21646L10.288 5.89128H9.85556Z" fill="white"/>
<path d="M9.72193 2.95087L9.85556 3.47702H10.288L9.93814 3.80221L10.0718 4.32836L9.72193 4.00318L9.37208 4.32836L9.50571 3.80221L9.15587 3.47702H9.5883L9.72193 2.95087Z" fill="white"/>
<path d="M9.85556 1.06277L9.72193 0.536614L9.5883 1.06277H9.15587L9.50571 1.38795L9.37208 1.91411L9.72193 1.58892L10.0718 1.91411L9.93814 1.38795L10.288 1.06277H9.85556Z" fill="white"/>
<path d="M8.6337 9.02333L8.76733 9.54948H9.19975L8.84991 9.87466L8.98354 10.4008L8.6337 10.0756L8.28385 10.4008L8.41748 9.87466L8.06764 9.54948H8.50007L8.6337 9.02333Z" fill="white"/>
<path d="M8.76733 7.13523L8.6337 6.60907L8.50007 7.13523H8.06764L8.41748 7.46041L8.28385 7.98656L8.6337 7.66138L8.98354 7.98656L8.84991 7.46041L9.19975 7.13523H8.76733Z" fill="white"/>
<path d="M8.6337 4.19482L8.76733 4.72097H9.19975L8.84991 5.04615L8.98354 5.57231L8.6337 5.24713L8.28385 5.57231L8.41748 5.04615L8.06764 4.72097H8.50007L8.6337 4.19482Z" fill="white"/>
<path d="M8.76733 2.30672L8.6337 1.78056L8.50007 2.30672H8.06764L8.41748 2.6319L8.28385 3.15806L8.6337 2.83287L8.98354 3.15806L8.84991 2.6319L9.19975 2.30672H8.76733Z" fill="white"/>
<path d="M7.53316 10.1936L7.66679 10.7198H8.09922L7.74937 11.045L7.883 11.5711L7.53316 11.2459L7.18332 11.5711L7.31694 11.045L6.9671 10.7198H7.39953L7.53316 10.1936Z" fill="white"/>
<path d="M7.66679 8.30553L7.53316 7.77938L7.39953 8.30553H6.9671L7.31694 8.63071L7.18332 9.15687L7.53316 8.83169L7.883 9.15687L7.74937 8.63071L8.09922 8.30553H7.66679Z" fill="white"/>
<path d="M7.53316 5.36512L7.66679 5.89128H8.09922L7.74937 6.21646L7.883 6.74262L7.53316 6.41743L7.18332 6.74262L7.31694 6.21646L6.9671 5.89128H7.39953L7.53316 5.36512Z" fill="white"/>
<path d="M7.66679 3.47702L7.53316 2.95087L7.39953 3.47702H6.9671L7.31694 3.80221L7.18332 4.32836L7.53316 4.00318L7.883 4.32836L7.74937 3.80221L8.09922 3.47702H7.66679Z" fill="white"/>
<path d="M7.53316 0.536614L7.66679 1.06277H8.09922L7.74937 1.38795L7.883 1.91411L7.53316 1.58892L7.18332 1.91411L7.31694 1.38795L6.9671 1.06277H7.39953L7.53316 0.536614Z" fill="white"/>
<path d="M6.57838 9.54948L6.44475 9.02333L6.31112 9.54948H5.87869L6.22854 9.87466L6.09491 10.4008L6.44475 10.0756L6.79459 10.4008L6.66096 9.87466L7.01081 9.54948H6.57838Z" fill="white"/>
<path d="M6.44475 6.60907L6.57838 7.13523H7.01081L6.66096 7.46041L6.79459 7.98656L6.44475 7.66138L6.09491 7.98656L6.22854 7.46041L5.87869 7.13523H6.31112L6.44475 6.60907Z" fill="white"/>
<path d="M6.57838 4.72097L6.44475 4.19482L6.31112 4.72097H5.87869L6.22854 5.04615L6.09491 5.57231L6.44475 5.24713L6.79459 5.57231L6.66096 5.04615L7.01081 4.72097H6.57838Z" fill="white"/>
<path d="M6.44475 1.78056L6.57838 2.30672H7.01081L6.66096 2.6319L6.79459 3.15806L6.44475 2.83287L6.09491 3.15806L6.22854 2.6319L5.87869 2.30672H6.31112L6.44475 1.78056Z" fill="white"/>
<path d="M5.4782 10.7198L5.34457 10.1936L5.21094 10.7198H4.77851L5.12835 11.045L4.99473 11.5711L5.34457 11.2459L5.69441 11.5711L5.56078 11.045L5.91063 10.7198H5.4782Z" fill="white"/>
<path d="M5.34457 7.77938L5.4782 8.30553H5.91063L5.56078 8.63071L5.69441 9.15687L5.34457 8.83169L4.99473 9.15687L5.12835 8.63071L4.77851 8.30553H5.21094L5.34457 7.77938Z" fill="white"/>
<path d="M5.4782 5.89128L5.34457 5.36512L5.21094 5.89128H4.77851L5.12835 6.21646L4.99473 6.74262L5.34457 6.41743L5.69441 6.74262L5.56078 6.21646L5.91063 5.89128H5.4782Z" fill="white"/>
<path d="M5.34457 2.95087L5.4782 3.47702H5.91063L5.56078 3.80221L5.69441 4.32836L5.34457 4.00318L4.99473 4.32836L5.12835 3.80221L4.77851 3.47702H5.21094L5.34457 2.95087Z" fill="white"/>
<path d="M5.4782 1.06277L5.34457 0.536614L5.21094 1.06277H4.77851L5.12835 1.38795L4.99473 1.91411L5.34457 1.58892L5.69441 1.91411L5.56078 1.38795L5.91063 1.06277H5.4782Z" fill="white"/>
<path d="M4.25616 9.02333L4.38979 9.54948H4.82222L4.47238 9.87466L4.606 10.4008L4.25616 10.0756L3.90632 10.4008L4.03995 9.87466L3.6901 9.54948H4.12253L4.25616 9.02333Z" fill="white"/>
<path d="M4.38979 7.13523L4.25616 6.60907L4.12253 7.13523H3.6901L4.03995 7.46041L3.90632 7.98656L4.25616 7.66138L4.606 7.98656L4.47238 7.46041L4.82222 7.13523H4.38979Z" fill="white"/>
<path d="M4.25616 4.19482L4.38979 4.72097H4.82222L4.47238 5.04615L4.606 5.57231L4.25616 5.24713L3.90632 5.57231L4.03995 5.04615L3.6901 4.72097H4.12253L4.25616 4.19482Z" fill="white"/>
<path d="M4.38979 2.30672L4.25616 1.78056L4.12253 2.30672H3.6901L4.03995 2.6319L3.90632 3.15806L4.25616 2.83287L4.606 3.15806L4.47238 2.6319L4.82222 2.30672H4.38979Z" fill="white"/>
</svg>
